<?xml version="1.0" standalone="no"?><!DOCTYPE svg PUBLIC "-//W3C//DTD SVG 1.1//EN" "http://www.w3.org/Graphics/SVG/1.1/DTD/svg11.dtd"><svg t="1716962813934" class="icon" viewBox="0 0 1024 1024" version="1.1" xmlns="http://www.w3.org/2000/svg" p-id="8153" xmlns:xlink="http://www.w3.org/1999/xlink" width="200" height="200"><path d="M612.352 88.064q-27.648 33.792-52.224 62.464-20.48 25.6-40.96 50.176t-29.696 36.864q-7.168 9.216-7.68 13.824t2.56 5.12 8.704-1.536 10.752-7.168 26.624-25.088 45.056-43.52q27.648-26.624 62.464-60.416l21.504 64.512q49.152-10.24 97.28-12.288 40.96-2.048 84.992 5.12t76.8 31.744q52.224 39.936 53.76 95.744t-32.768 116.224-98.304 119.808-143.872 107.52q-51.2 30.72-111.104 55.296t-121.344 40.448-120.832 23.552-109.568 5.632-87.552-15.36-54.784-37.888q-27.648-39.936-29.184-81.408t12.8-80.384 38.912-73.728 49.664-61.952 45.568-44.032 24.576-19.968l-28.672-99.328q48.128 6.144 89.088 11.264 17.408 2.048 35.328 4.608t34.304 4.096 29.184 3.072 19.968 1.536q11.264 1.024 15.872-1.024t4.608-5.12-4.096-6.144-9.216-4.096q-3.072-1.024-13.824-3.072t-26.112-5.632-33.28-7.68-36.352-8.192q-43.008-10.24-97.28-22.528l124.928-161.792q21.504 39.936 39.936 74.752 16.384 29.696 32.256 58.88t24.064 43.52q11.264 20.48 16.384 14.336t0-21.504q-2.048-4.096-5.632-14.336t-8.192-24.064-10.24-29.696-11.776-31.232q-13.312-36.864-30.72-80.896zM187.392 644.096q17.408 20.48 61.952 25.088t102.4-3.584 123.904-29.184 126.464-52.736q68.608-35.84 121.856-76.288t86.528-79.36 45.568-73.216 0-58.88q-14.336-26.624-42.496-34.816t-56.832-8.192q-33.792 0-71.68 9.216l20.48 49.152q-44.032-7.168-80.896-12.288-31.744-5.12-62.464-9.728t-43.008-6.656q-17.408-3.072-18.944 5.12t8.704 11.264q3.072 1.024 13.312 4.096t24.576 7.168 31.744 9.216l34.816 10.24q40.96 11.264 92.16 26.624l-124.928 160.768q-21.504-48.128-38.912-89.088-15.36-34.816-28.672-66.048t-17.408-40.448q-7.168-13.312-15.36-9.728t-6.144 16.896q0 2.048 3.072 12.288t7.68 25.088 9.728 33.28 11.264 36.864q13.312 44.032 29.696 98.304l-221.184-41.984q32.768-40.96 60.416-75.776 23.552-29.696 45.056-57.344t27.648-37.888q5.12-7.168 4.608-11.264t-4.096-5.632-8.704 0-8.192 4.608q-1.024 1.024-8.192 8.704t-17.92 18.944-24.576 25.088-27.136 28.16q-32.768 33.792-73.728 75.776l-15.36-40.96q-48.128 53.248-69.12 91.136t-24.576 64 3.072 41.472 13.824 22.528z" p-id="8154" fill="#d81e06"></path></svg>